<svg version="1.1" id="Layer_1" xmlns="http://www.w3.org/2000/svg" xmlns:xlink="http://www.w3.org/1999/xlink" x="0px" y="0px"
	 width="100%" viewBox="0 0 1200 1200" enable-background="new 0 0 1200 1200" xml:space="preserve">
<path fill="#000000" opacity="1.000000" stroke="none" 
	d="
M755.000000,1201.000000 
	C503.333344,1201.000000 252.166672,1201.000000 1.000000,1201.000000 
	C1.000000,801.000000 1.000000,401.000000 1.000000,1.000000 
	C401.000000,1.000000 801.000000,1.000000 1201.000000,1.000000 
	C1201.000000,401.000000 1201.000000,801.000000 1201.000000,1201.000000 
	C1052.500000,1201.000000 904.000000,1201.000000 755.000000,1201.000000 
M831.096558,899.339600 
	C870.771729,902.220093 910.153381,900.251099 948.382080,888.757446 
	C1042.503540,860.459290 1105.602173,800.238342 1134.430054,705.458008 
	C1135.025879,703.499390 1135.437012,701.484680 1135.979370,699.315552 
	C1134.632568,699.211304 1133.974365,699.115967 1133.316284,699.115845 
	C1072.153076,699.106323 1010.989868,699.138977 949.826965,699.004089 
	C946.577820,698.996948 945.566528,700.582581 944.400208,702.921814 
	C936.582397,718.602600 925.765015,731.685059 910.720398,740.941833 
	C892.202637,752.335693 871.762024,755.660034 850.384521,755.269165 
	C802.950623,754.401672 765.314636,726.833130 750.539673,681.770874 
	C746.599304,669.753113 744.158997,657.420288 743.728210,644.048218 
	C878.219116,644.048218 1012.261230,644.048218 1146.603394,644.048218 
	C1147.166626,637.489014 1147.684082,631.541748 1148.186890,625.593262 
	C1151.651367,584.607971 1149.698853,543.937012 1138.803589,504.168304 
	C1115.337402,418.515808 1063.480957,357.002197 980.375977,324.243164 
	C908.806824,296.031464 835.276001,294.853302 761.816650,316.149200 
	C688.968872,337.267792 634.406433,381.835083 599.554993,449.627960 
	C579.539307,488.562286 569.816101,530.276794 566.989624,573.788208 
	C564.468323,612.602356 566.689026,651.047607 576.111633,688.862366 
	C591.551514,750.825012 622.901184,802.881958 673.968140,841.973083 
	C719.988098,877.200928 772.751892,894.755981 831.096558,899.339600 
M448.029022,511.533295 
	C463.715027,492.940125 479.477966,474.410645 494.983337,455.668091 
	C496.794525,453.478760 498.084137,450.116730 498.096588,447.291656 
	C498.289551,403.464813 498.234375,359.636871 498.221252,315.809204 
	C498.220734,314.040527 498.069244,312.271912 497.989594,310.536316 
	C349.835938,310.536316 202.153412,310.536316 54.494255,310.536316 
	C54.494255,359.561096 54.494255,408.149902 54.494255,457.312531 
	C134.006378,457.312531 213.201279,457.312531 293.497101,457.312531 
	C291.678314,459.575378 290.585144,460.967926 289.458374,462.332733 
	C211.388550,556.895935 133.300690,651.444214 55.339474,746.096924 
	C53.531933,748.291443 52.248932,751.655518 52.236496,754.480774 
	C52.043598,798.307617 52.101501,842.135559 52.101379,885.963257 
	C52.101372,887.733276 52.101376,889.503296 52.101376,891.476074 
	C202.810440,891.476074 352.861237,891.476074 503.204895,891.476074 
	C503.204895,842.460388 503.204895,793.742554 503.204895,744.224487 
	C419.594574,744.224487 336.311951,744.224487 251.786240,744.224487 
	C317.660645,666.121826 382.621521,589.102234 448.029022,511.533295 
z"/>
<path fill="#CF9C02" opacity="1.000000" stroke="none" 
	d="
M830.636658,899.289917 
	C772.751892,894.755981 719.988098,877.200928 673.968140,841.973083 
	C622.901184,802.881958 591.551514,750.825012 576.111633,688.862366 
	C566.689026,651.047607 564.468323,612.602356 566.989624,573.788208 
	C569.816101,530.276794 579.539307,488.562286 599.554993,449.627960 
	C634.406433,381.835083 688.968872,337.267792 761.816650,316.149200 
	C835.276001,294.853302 908.806824,296.031464 980.375977,324.243164 
	C1063.480957,357.002197 1115.337402,418.515808 1138.803589,504.168304 
	C1149.698853,543.937012 1151.651367,584.607971 1148.186890,625.593262 
	C1147.684082,631.541748 1147.166626,637.489014 1146.603394,644.048218 
	C1012.261230,644.048218 878.219116,644.048218 743.728210,644.048218 
	C744.158997,657.420288 746.599304,669.753113 750.539673,681.770874 
	C765.314636,726.833130 802.950623,754.401672 850.384521,755.269165 
	C871.762024,755.660034 892.202637,752.335693 910.720398,740.941833 
	C925.765015,731.685059 936.582397,718.602600 944.400208,702.921814 
	C945.566528,700.582581 946.577820,698.996948 949.826965,699.004089 
	C1010.989868,699.138977 1072.153076,699.106323 1133.316284,699.115845 
	C1133.974365,699.115967 1134.632568,699.211304 1135.979370,699.315552 
	C1135.437012,701.484680 1135.025879,703.499390 1134.430054,705.458008 
	C1105.602173,800.238342 1042.503540,860.459290 948.382080,888.757446 
	C910.153381,900.251099 870.771729,902.220093 830.636658,899.289917 
M784.293457,469.777893 
	C760.526917,489.107574 749.255859,514.972351 744.581299,544.724548 
	C819.015808,544.724548 892.865356,544.724548 967.063293,544.724548 
	C966.794250,517.832153 959.012695,494.333771 939.409485,475.625122 
	C917.713562,454.919037 891.264099,446.074890 861.780396,445.332275 
	C833.459595,444.618896 807.362000,451.309631 784.293457,469.777893 
z"/>
<path fill="#CE9C02" opacity="1.000000" stroke="none" 
	d="
M447.805725,511.807983 
	C382.621521,589.102234 317.660645,666.121826 251.786240,744.224487 
	C336.311951,744.224487 419.594574,744.224487 503.204895,744.224487 
	C503.204895,793.742554 503.204895,842.460388 503.204895,891.476074 
	C352.861237,891.476074 202.810440,891.476074 52.101376,891.476074 
	C52.101376,889.503296 52.101372,887.733276 52.101379,885.963257 
	C52.101501,842.135559 52.043598,798.307617 52.236496,754.480774 
	C52.248932,751.655518 53.531933,748.291443 55.339474,746.096924 
	C133.300690,651.444214 211.388550,556.895935 289.458374,462.332733 
	C290.585144,460.967926 291.678314,459.575378 293.497101,457.312531 
	C213.201279,457.312531 134.006378,457.312531 54.494255,457.312531 
	C54.494255,408.149902 54.494255,359.561096 54.494255,310.536316 
	C202.153412,310.536316 349.835938,310.536316 497.989594,310.536316 
	C498.069244,312.271912 498.220734,314.040527 498.221252,315.809204 
	C498.234375,359.636871 498.289551,403.464813 498.096588,447.291656 
	C498.084137,450.116730 496.794525,453.478760 494.983337,455.668091 
	C479.477966,474.410645 463.715027,492.940125 447.805725,511.807983 
z"/>
<path fill="#000000" opacity="1.000000" stroke="none" 
	d="
M784.563232,469.545471 
	C807.362000,451.309631 833.459595,444.618896 861.780396,445.332275 
	C891.264099,446.074890 917.713562,454.919037 939.409485,475.625122 
	C959.012695,494.333771 966.794250,517.832153 967.063293,544.724548 
	C892.865356,544.724548 819.015808,544.724548 744.581299,544.724548 
	C749.255859,514.972351 760.526917,489.107574 784.563232,469.545471 
z"/>
</svg>